<svg width="40" height="40" viewBox="0 0 40 40" fill="none" xmlns="http://www.w3.org/2000/svg">
<path d="M32.8 3.20001H7.20001C4.99201 3.20001 3.20001 4.99201 3.20001 7.20001V32.8C3.20001 35.008 4.99201 36.8 7.20001 36.8H32.8C35.008 36.8 36.8 35.008 36.8 32.8V7.20001C36.8 4.99201 35.008 3.20001 32.8 3.20001ZM13.6 16V31.2H8.80001V16H13.6ZM8.80001 11.576C8.80001 10.456 9.76001 9.60001 11.2 9.60001C12.64 9.60001 13.544 10.456 13.6 11.576C13.6 12.696 12.704 13.6 11.2 13.6C9.76001 13.6 8.80001 12.696 8.80001 11.576ZM31.2 31.2H26.4C26.4 31.2 26.4 23.792 26.4 23.2C26.4 21.6 25.6 20 23.6 19.968H23.536C21.6 19.968 20.8 21.616 20.8 23.2C20.8 23.928 20.8 31.2 20.8 31.2H16V16H20.8V18.048C20.8 18.048 22.344 16 25.448 16C28.624 16 31.2 18.184 31.2 22.608V31.2Z" fill="white"/>
</svg>
